<svg width="18.000000" height="18.000000" viewBox="0 0 18 18" fill="none" xmlns="http://www.w3.org/2000/svg" xmlns:xlink="http://www.w3.org/1999/xlink">
	<desc>
			Created with Pixso.
	</desc>
	<defs/>
	<path d="M5.41 8.09C5.23 8.09 5.06 8.15 4.91 8.25C4.77 8.35 4.65 8.49 4.58 8.65C4.51 8.81 4.5 9 4.53 9.17C4.57 9.34 4.65 9.51 4.78 9.63C4.9 9.76 5.06 9.84 5.24 9.88C5.41 9.91 5.59 9.89 5.76 9.83C5.92 9.76 6.06 9.64 6.16 9.49C6.26 9.35 6.31 9.17 6.31 8.99C6.31 8.76 6.22 8.53 6.05 8.36C5.88 8.19 5.65 8.09 5.41 8.09ZM9.01 8.09C8.83 8.09 8.66 8.15 8.51 8.25C8.36 8.35 8.25 8.49 8.18 8.65C8.11 8.81 8.09 9 8.13 9.17C8.16 9.34 8.25 9.51 8.37 9.63C8.5 9.76 8.66 9.84 8.83 9.88C9.01 9.91 9.19 9.89 9.35 9.83C9.52 9.76 9.66 9.64 9.75 9.49C9.85 9.35 9.91 9.17 9.91 8.99C9.91 8.76 9.81 8.53 9.64 8.36C9.47 8.19 9.25 8.09 9.01 8.09ZM12.6 8.09C12.42 8.09 12.25 8.15 12.1 8.25C11.96 8.35 11.84 8.49 11.77 8.65C11.7 8.81 11.69 9 11.72 9.17C11.76 9.34 11.84 9.51 11.97 9.63C12.09 9.76 12.25 9.84 12.43 9.88C12.6 9.91 12.78 9.89 12.95 9.83C13.11 9.76 13.25 9.64 13.35 9.49C13.45 9.35 13.5 9.17 13.5 8.99C13.5 8.76 13.41 8.53 13.24 8.36C13.07 8.19 12.84 8.09 12.6 8.09ZM9.01 0C7.83 0 6.66 0.23 5.57 0.68C4.48 1.13 3.49 1.8 2.65 2.63C0.97 4.32 0.02 6.61 0.02 8.99C0.01 11.07 0.73 13.09 2.05 14.69L0.25 16.49C0.13 16.62 0.04 16.78 0.01 16.95C-0.02 17.13 0 17.31 0.07 17.47C0.14 17.63 0.26 17.77 0.41 17.86C0.56 17.96 0.74 18 0.92 17.99L9.01 17.99C11.39 17.99 13.68 17.05 15.36 15.36C17.05 13.67 18 11.38 18 8.99C18 6.61 17.05 4.32 15.36 2.63C13.68 0.94 11.39 0 9.01 0ZM9.01 16.19L3.08 16.19L3.92 15.36C4.09 15.19 4.18 14.96 4.18 14.72C4.18 14.49 4.09 14.26 3.92 14.09C2.74 12.91 2.01 11.36 1.85 9.7C1.68 8.05 2.1 6.38 3.02 5C3.94 3.61 5.32 2.59 6.91 2.11C8.5 1.62 10.21 1.7 11.75 2.34C13.29 2.98 14.56 4.13 15.34 5.6C16.13 7.06 16.38 8.76 16.05 10.39C15.73 12.03 14.85 13.5 13.57 14.56C12.28 15.61 10.67 16.19 9.01 16.19Z" fill="#94A3BD" fill-opacity="1.000000" fill-rule="nonzero"/>
</svg>
