<svg width="22.213989" height="22.604736" viewBox="0 0 22.214 22.6047" fill="none" xmlns="http://www.w3.org/2000/svg" xmlns:xlink="http://www.w3.org/1999/xlink">
	<desc>
			Created with Pixso.
	</desc>
	<defs/>
	<path d="M0.5 11.08C0.49 13.06 1.03 15 2.04 16.71C3.05 18.41 4.51 19.81 6.25 20.76L6.25 22.1L15.83 22.1L15.83 20.76C17.57 19.81 19.03 18.41 20.04 16.71C21.05 15 21.58 13.06 21.58 11.08L21.58 10.6L0.5 10.6L0.5 11.08Z" stroke="#5051F9" stroke-opacity="1.000000" stroke-width="1.000000"/>
	<path d="M18.43 6.22L21.81 1.62" stroke="#5051F9" stroke-opacity="1.000000" stroke-width="1.000000"/>
	<path d="M17.2 5.38L18.33 0.1" stroke="#5051F9" stroke-opacity="1.000000" stroke-width="1.000000"/>
	<path d="M2.05 10.6C1.79 9.3 1.96 7.95 2.54 6.76C3.12 5.58 4.07 4.61 5.26 4.02C6.44 3.44 7.79 3.26 9.08 3.51C10.38 3.77 11.56 4.45 12.43 5.44" stroke="#5051F9" stroke-opacity="1.000000" stroke-width="1.000000"/>
	<path d="M4.03 10.6C3.76 9.71 3.79 8.77 4.13 7.91C4.47 7.05 5.09 6.33 5.89 5.87C6.69 5.41 7.62 5.23 8.54 5.37C9.45 5.51 10.29 5.95 10.91 6.63" stroke="#5051F9" stroke-opacity="1.000000" stroke-width="1.000000"/>
	<path d="M6.13 10.6C5.97 10.35 5.85 10.07 5.8 9.78C5.75 9.49 5.75 9.19 5.82 8.9C5.89 8.61 6.01 8.34 6.19 8.1C6.37 7.86 6.59 7.67 6.85 7.52C7.1 7.37 7.39 7.28 7.68 7.24C7.98 7.21 8.28 7.24 8.56 7.33C8.84 7.42 9.11 7.56 9.33 7.76C9.56 7.95 9.74 8.19 9.87 8.46" stroke="#5051F9" stroke-opacity="1.000000" stroke-width="1.000000"/>
	<path d="M16.22 10.6C16.3 10.38 16.33 10.15 16.3 9.92C16.27 9.69 16.18 9.47 16.05 9.28C15.92 9.09 15.74 8.94 15.54 8.83C15.33 8.72 15.1 8.67 14.87 8.67C14.64 8.67 14.41 8.72 14.21 8.83C14 8.94 13.83 9.09 13.69 9.28C13.56 9.47 13.48 9.69 13.45 9.92C13.42 10.15 13.44 10.38 13.52 10.6" stroke="#5051F9" stroke-opacity="1.000000" stroke-width="1.000000"/>
	<path d="M18.19 10.6C18.27 10.12 18.24 9.63 18.1 9.17C17.97 8.7 17.74 8.27 17.42 7.9C17.11 7.53 16.72 7.24 16.28 7.04C15.84 6.84 15.36 6.73 14.88 6.73C14.39 6.73 13.92 6.84 13.48 7.04C13.04 7.24 12.65 7.53 12.33 7.9C12.02 8.27 11.78 8.7 11.65 9.17C11.52 9.63 11.49 10.12 11.56 10.6" stroke="#5051F9" stroke-opacity="1.000000" stroke-width="1.000000"/>
	<path d="M20.12 10.6C20.13 10.44 20.15 10.28 20.15 10.12C20.15 8.72 19.59 7.38 18.6 6.39C17.61 5.4 16.27 4.84 14.87 4.84C13.48 4.84 12.13 5.4 11.15 6.39C10.16 7.38 9.6 8.72 9.6 10.12C9.6 10.28 9.61 10.44 9.63 10.6" stroke="#5051F9" stroke-opacity="1.000000" stroke-width="1.000000"/>
</svg>
