<svg width="66.000000" height="71.000000" viewBox="0 0 66 71" fill="none" xmlns="http://www.w3.org/2000/svg" xmlns:xlink="http://www.w3.org/1999/xlink">
	<desc>
			Created with Pixso.
	</desc>
	<defs/>
	<path id="Habbit" d="M2.15 66.91Q2.3 67 2.5 67Q2.7 67 2.85 66.91Q2.93 66.86 3 66.8Q3.07 66.73 3.11 66.65Q3.2 66.5 3.2 66.29L3.2 60.51L11.98 60.51L11.98 66.29Q11.98 66.5 12.07 66.65Q12.11 66.73 12.18 66.8Q12.25 66.86 12.33 66.91Q12.48 67 12.69 67Q12.88 67 13.03 66.91Q13.12 66.87 13.19 66.8Q13.25 66.73 13.3 66.65Q13.39 66.5 13.39 66.29L13.39 53.64Q13.39 53.44 13.3 53.28Q13.25 53.2 13.19 53.13Q13.12 53.06 13.03 53.02Q12.88 52.94 12.69 52.94Q12.48 52.94 12.33 53.02Q12.25 53.07 12.18 53.13Q12.11 53.2 12.07 53.28Q11.98 53.44 11.98 53.64L11.98 59.26L3.2 59.26L3.2 53.64Q3.2 53.44 3.11 53.28Q3.07 53.2 3 53.13Q2.93 53.07 2.85 53.02Q2.7 52.94 2.5 52.94Q2.3 52.94 2.15 53.02Q2.07 53.06 1.99 53.13Q1.93 53.2 1.88 53.28Q1.8 53.44 1.8 53.64L1.8 66.29Q1.8 66.5 1.88 66.65Q1.93 66.73 1.99 66.8Q2.07 66.87 2.15 66.91ZM31.95 66.68Q32.88 67.08 33.98 67.08Q35.2 67.08 36.2 66.61Q36.38 66.53 36.55 66.43Q37.13 66.09 37.58 65.64Q38.02 65.19 38.34 64.64Q38.46 64.44 38.55 64.24Q39 63.25 39 62.06Q39 60.88 38.56 59.89Q38.47 59.7 38.36 59.51Q38 58.87 37.5 58.38Q37.1 58 36.62 57.72Q36.37 57.56 36.09 57.45Q35.2 57.06 34.14 57.06Q33.12 57.06 32.26 57.43Q32.1 57.49 31.95 57.57Q31.19 57.97 30.66 58.58Q30.51 58.75 30.38 58.93L30.38 53.64Q30.38 53.37 30.25 53.2Q30.22 53.16 30.19 53.13Q30.14 53.08 30.08 53.04Q29.92 52.94 29.69 52.94Q29.44 52.94 29.27 53.06Q29.22 53.09 29.18 53.13Q29.15 53.16 29.12 53.2Q28.99 53.37 28.99 53.64L28.99 62.13Q29.01 63.25 29.42 64.19Q29.53 64.43 29.67 64.67Q30.01 65.25 30.48 65.71Q30.91 66.13 31.45 66.44Q31.69 66.58 31.95 66.68ZM44.67 66.68Q45.6 67.08 46.7 67.08Q47.93 67.08 48.93 66.61Q49.11 66.53 49.28 66.43Q49.85 66.09 50.3 65.64Q50.74 65.19 51.07 64.64Q51.18 64.44 51.28 64.24Q51.73 63.25 51.73 62.06Q51.73 60.88 51.28 59.89Q51.19 59.7 51.09 59.51Q50.73 58.87 50.22 58.38Q49.83 58 49.35 57.72Q49.09 57.56 48.82 57.45Q47.93 57.06 46.87 57.06Q45.85 57.06 44.99 57.43Q44.83 57.49 44.68 57.57Q43.91 57.97 43.38 58.58Q43.23 58.75 43.1 58.93L43.1 53.64Q43.1 53.37 42.98 53.2Q42.95 53.16 42.92 53.13Q42.87 53.08 42.81 53.04Q42.64 52.94 42.42 52.94Q42.16 52.94 41.99 53.06Q41.95 53.09 41.91 53.13Q41.87 53.16 41.85 53.2Q41.72 53.37 41.72 53.64L41.72 62.13Q41.73 63.25 42.15 64.19Q42.26 64.43 42.39 64.67Q42.74 65.25 43.2 65.71Q43.64 66.13 44.18 66.44Q44.42 66.58 44.67 66.68ZM55.09 55.22Q55.24 55.28 55.42 55.28Q55.63 55.28 55.82 55.2Q55.98 55.13 56.12 54.99Q56.26 54.85 56.33 54.68Q56.41 54.5 56.41 54.29Q56.41 53.98 56.27 53.77Q56.2 53.66 56.11 53.58Q55.93 53.42 55.73 53.36Q55.59 53.31 55.44 53.31Q55.24 53.31 55.07 53.38Q54.9 53.44 54.74 53.58Q54.65 53.66 54.59 53.76Q54.45 53.98 54.45 54.29Q54.45 54.5 54.53 54.69Q54.6 54.85 54.73 54.99Q54.9 55.15 55.09 55.22ZM62.09 66.7Q62.73 67 63.5 67L63.88 67Q64.12 67 64.3 66.89Q64.36 66.85 64.42 66.81Q64.5 66.73 64.55 66.64Q64.63 66.5 64.63 66.31Q64.63 66.09 64.54 65.92Q64.5 65.86 64.45 65.81Q64.38 65.73 64.29 65.68Q64.16 65.61 63.99 65.61L63.5 65.61Q63 65.61 62.61 65.41Q62.34 65.27 62.11 65.03Q61.98 64.88 61.88 64.72Q61.57 64.21 61.57 63.52L61.57 58.72L63.61 58.72Q63.78 58.72 63.91 58.65Q63.99 58.61 64.06 58.54Q64.14 58.46 64.19 58.36Q64.24 58.25 64.24 58.12Q64.24 57.95 64.16 57.81Q64.12 57.74 64.06 57.68Q63.99 57.62 63.91 57.58Q63.78 57.51 63.61 57.51L61.57 57.51L61.57 54.72Q61.57 54.52 61.49 54.36Q61.44 54.28 61.38 54.22Q61.31 54.15 61.23 54.1Q61.07 54.02 60.87 54.02Q60.67 54.02 60.52 54.11Q60.44 54.15 60.38 54.22Q60.32 54.27 60.28 54.34Q60.19 54.5 60.19 54.72L60.19 57.51L59.02 57.51Q58.85 57.51 58.71 57.58Q58.63 57.62 58.57 57.68Q58.5 57.74 58.46 57.81Q58.39 57.95 58.39 58.12Q58.39 58.25 58.43 58.36Q58.48 58.46 58.57 58.54Q58.63 58.61 58.71 58.65Q58.85 58.72 59.02 58.72L60.19 58.72L60.19 63.52Q60.19 64.5 60.6 65.27Q60.61 65.29 60.62 65.31Q60.87 65.77 61.23 66.11Q61.49 66.36 61.8 66.55Q61.94 66.63 62.09 66.7ZM19.14 66.68Q20.06 67.08 21.15 67.08Q22.25 67.08 23.15 66.66Q23.32 66.58 23.49 66.48Q24.02 66.17 24.44 65.75Q24.69 65.5 24.89 65.22L24.89 66.31Q24.89 66.52 24.98 66.68Q25.03 66.75 25.09 66.81Q25.15 66.87 25.22 66.91Q25.38 67 25.59 67Q25.81 67 25.97 66.9Q26.04 66.86 26.09 66.81Q26.16 66.75 26.2 66.68Q26.29 66.52 26.29 66.31L26.29 62.08Q26.28 60.85 25.79 59.85Q25.71 59.67 25.62 59.51Q25.27 58.91 24.8 58.45Q24.37 58.03 23.84 57.72Q23.61 57.59 23.38 57.48Q22.43 57.06 21.29 57.06Q20.16 57.06 19.21 57.48Q18.96 57.58 18.73 57.72Q18.17 58.04 17.73 58.48Q17.27 58.93 16.94 59.51Q16.84 59.68 16.76 59.86Q16.29 60.86 16.29 62.08Q16.29 63.26 16.73 64.24Q16.82 64.44 16.92 64.64Q17.29 65.29 17.81 65.78Q18.19 66.15 18.66 66.43Q18.89 66.57 19.14 66.68ZM55 66.87Q55.17 67 55.44 67Q55.66 67 55.82 66.89Q55.88 66.86 55.93 66.81Q55.97 66.77 56 66.73Q56.12 66.56 56.12 66.29L56.12 57.85Q56.12 57.59 56 57.42Q55.97 57.38 55.93 57.34Q55.88 57.28 55.81 57.24Q55.65 57.15 55.44 57.15Q55.18 57.15 55.01 57.27Q54.96 57.3 54.92 57.34Q54.88 57.38 54.85 57.42Q54.73 57.59 54.73 57.85L54.73 66.29Q54.73 66.56 54.86 66.73Q54.89 66.77 54.92 66.81Q54.96 66.84 55 66.87ZM22.85 65.5Q22.15 65.83 21.29 65.83Q20.52 65.83 19.87 65.56Q19.64 65.47 19.43 65.34Q19.1 65.15 18.83 64.9Q18.41 64.51 18.12 64Q18.01 63.81 17.93 63.61Q17.63 62.91 17.63 62.08Q17.63 61.13 18.01 60.35Q18.06 60.25 18.12 60.16Q18.39 59.68 18.78 59.31Q19.07 59.03 19.43 58.82Q19.67 58.67 19.93 58.57Q20.56 58.32 21.29 58.32Q22.11 58.32 22.79 58.63Q22.98 58.71 23.15 58.82Q23.52 59.04 23.81 59.33Q24.18 59.69 24.45 60.16Q24.5 60.24 24.54 60.33Q24.93 61.11 24.93 62.08Q24.93 62.92 24.62 63.63Q24.55 63.82 24.45 64Q24.17 64.5 23.77 64.88Q23.49 65.14 23.15 65.34Q23 65.43 22.85 65.5ZM35.47 65.52Q34.79 65.83 33.98 65.83Q33.26 65.83 32.64 65.58Q32.38 65.48 32.12 65.33Q31.72 65.09 31.4 64.76Q31.07 64.42 30.83 63.99Q30.79 63.92 30.75 63.84Q30.36 63.05 30.36 62.06Q30.36 61.15 30.7 60.39Q30.76 60.27 30.83 60.15Q31.1 59.66 31.48 59.29Q31.77 59.01 32.12 58.81Q32.36 58.67 32.61 58.57Q33.24 58.32 33.98 58.32Q34.82 58.32 35.52 58.63Q35.69 58.71 35.85 58.81Q36.21 59.02 36.5 59.3Q36.89 59.66 37.16 60.15Q37.24 60.3 37.31 60.46Q37.63 61.19 37.63 62.06Q37.63 63 37.27 63.77Q37.22 63.88 37.16 63.99Q36.92 64.41 36.59 64.75Q36.26 65.08 35.85 65.33Q35.67 65.44 35.47 65.52ZM48.2 65.52Q47.52 65.83 46.7 65.83Q45.99 65.83 45.37 65.58Q45.1 65.48 44.85 65.33Q44.44 65.09 44.12 64.76Q43.79 64.42 43.55 63.99Q43.51 63.92 43.48 63.84Q43.09 63.05 43.09 62.06Q43.09 61.15 43.43 60.39Q43.49 60.27 43.55 60.15Q43.82 59.66 44.21 59.29Q44.5 59.01 44.85 58.81Q45.08 58.67 45.33 58.57Q45.97 58.32 46.7 58.32Q47.54 58.32 48.24 58.63Q48.41 58.71 48.58 58.81Q48.94 59.02 49.23 59.3Q49.61 59.66 49.88 60.15Q49.97 60.3 50.04 60.46Q50.36 61.19 50.36 62.06Q50.36 63 49.99 63.77Q49.94 63.88 49.88 63.99Q49.64 64.41 49.32 64.75Q48.99 65.08 48.58 65.33Q48.39 65.44 48.2 65.52Z" fill="#000000" fill-opacity="1.000000" fill-rule="evenodd"/>
	<rect id="Logomark" rx="-0.215686" width="43.568626" height="43.568626" transform="translate(11.215686 0.215686)" fill="#FFFFFF" fill-opacity="0"/>
	<path id="Isometric square" d="M24.27 20.31C25.09 17.24 28.25 14.09 31.32 13.27L50.45 8.14C53.51 7.32 55.34 9.14 54.51 12.21L49.39 31.34C48.56 34.41 45.41 37.56 42.34 38.38L23.21 43.51C20.14 44.33 18.32 42.51 19.15 39.44L24.27 20.31Z" fill="#B8B8FF" fill-opacity="1.000000" fill-rule="nonzero"/>
	<path id="Isometric square" d="M16.6 12.64C17.43 9.58 20.58 6.42 23.65 5.6L42.78 0.47C45.85 -0.35 47.67 1.47 46.84 4.54L41.72 23.67C40.9 26.74 37.74 29.89 34.67 30.71L15.54 35.84C12.48 36.66 10.66 34.84 11.48 31.77L16.6 12.64Z" fill="#5051F9" fill-opacity="1.000000" fill-rule="nonzero"/>
</svg>
