<svg width="22.875000" height="22.874512" viewBox="0 0 22.875 22.8745" fill="none" xmlns="http://www.w3.org/2000/svg" xmlns:xlink="http://www.w3.org/1999/xlink">
	<desc>
			Created with Pixso.
	</desc>
	<defs/>
	<path id="Vector" d="M12.56 19.86L3.01 10.3C2.73 10.03 2.36 9.87 1.97 9.87C1.15 9.87 0.5 10.53 0.5 11.34C0.5 11.73 0.65 12.11 0.93 12.38L10.48 21.94C10.76 22.21 11.13 22.37 11.52 22.37C12.34 22.37 13 21.71 13 20.9C13 20.51 12.84 20.13 12.56 19.86Z" stroke="#5051F9" stroke-opacity="1.000000" stroke-width="1.000000"/>
	<path id="Vector" d="M3.01 14.47C2.73 14.19 2.36 14.04 1.97 14.04C1.15 14.04 0.5 14.7 0.5 15.51C0.5 15.9 0.65 16.28 0.93 16.55L6.31 21.94C6.59 22.21 6.96 22.37 7.35 22.37C8.17 22.37 8.83 21.71 8.83 20.9C8.83 20.51 8.67 20.13 8.4 19.86" stroke="#5051F9" stroke-opacity="1.000000" stroke-width="1.000000"/>
	<path id="Vector" d="M2.58 18.2L1.02 19.77L3.1 21.85L4.66 20.29" stroke="#5051F9" stroke-opacity="1.000000" stroke-width="1.000000"/>
	<path id="Vector" d="M10.3 3.01L19.85 12.56C20.13 12.84 20.51 12.99 20.9 12.99C21.71 13 22.37 12.34 22.37 11.52C22.37 11.13 22.21 10.76 21.94 10.48L12.38 0.93C12.11 0.65 11.73 0.5 11.34 0.5C10.53 0.5 9.87 1.15 9.87 1.97C9.87 2.36 10.03 2.73 10.3 3.01Z" stroke="#5051F9" stroke-opacity="1.000000" stroke-width="1.000000"/>
	<path id="Vector" d="M19.86 8.4C20.13 8.67 20.51 8.83 20.9 8.83C21.71 8.83 22.37 8.17 22.37 7.36C22.37 6.96 22.21 6.59 21.94 6.31L16.55 0.93C16.28 0.65 15.9 0.5 15.51 0.5C14.7 0.5 14.04 1.15 14.04 1.97C14.04 2.36 14.19 2.73 14.47 3.01" stroke="#5051F9" stroke-opacity="1.000000" stroke-width="1.000000"/>
	<path id="Vector" d="M20.29 4.66L21.85 3.1L19.77 1.02L18.2 2.58" stroke="#5051F9" stroke-opacity="1.000000" stroke-width="1.000000"/>
	<path id="Vector" d="M6.75 14.04L14.04 6.75" stroke="#5051F9" stroke-opacity="1.000000" stroke-width="1.000000"/>
	<path id="Vector" d="M8.83 16.12L16.12 8.83" stroke="#5051F9" stroke-opacity="1.000000" stroke-width="1.000000"/>
</svg>
