<svg width="12.458374" height="24.958282" viewBox="0 0 12.4584 24.9583" fill="none" xmlns="http://www.w3.org/2000/svg" xmlns:xlink="http://www.w3.org/1999/xlink">
	<desc>
			Created with Pixso.
	</desc>
	<defs/>
	<path id="Vector" d="M10.91 10.39L1.54 10.39" stroke="#5051F9" stroke-opacity="1.000000" stroke-width="1.000000"/>
	<path id="Vector" d="M1.54 18.2L10.91 18.2" stroke="#5051F9" stroke-opacity="1.000000" stroke-width="1.000000"/>
	<path id="Vector" d="M11.65 18.51C11.84 18.7 11.95 18.97 11.95 19.24L11.95 22.89C11.95 23.31 11.79 23.7 11.5 24C11.2 24.29 10.81 24.45 10.39 24.45L2.06 24.45C1.64 24.45 1.25 24.29 0.95 24C0.66 23.7 0.5 23.31 0.5 22.89L0.5 19.24C0.5 18.97 0.6 18.7 0.8 18.51C1 18.31 1.26 18.2 1.54 18.2L1.54 10.39C1.26 10.39 1 10.28 0.8 10.09C0.6 9.89 0.5 9.63 0.5 9.35L0.5 7.27C0.5 6.44 0.82 5.64 1.41 5.06C2 4.47 2.79 4.14 3.62 4.14L8.83 4.14C9.66 4.14 10.45 4.47 11.04 5.06C11.62 5.64 11.95 6.44 11.95 7.27L11.95 9.35C11.95 9.63 11.84 9.89 11.65 10.09C11.45 10.28 11.19 10.39 10.91 10.39L10.91 18.2C11.19 18.2 11.45 18.31 11.65 18.51Z" stroke="#5051F9" stroke-opacity="1.000000" stroke-width="1.000000"/>
	<path id="Vector" d="M8.83 4.14L8.83 1.54C8.83 1.26 8.72 1 8.52 0.8C8.33 0.6 8.06 0.5 7.79 0.5L4.66 0.5C4.39 0.5 4.12 0.6 3.93 0.8C3.73 1 3.62 1.26 3.62 1.54L3.62 4.14" stroke="#5051F9" stroke-opacity="1.000000" stroke-width="1.000000"/>
</svg>
